<?xml version="1.0" encoding="utf-8"?>
<!-- Generator: Adobe Illustrator 16.0.0, SVG Export Plug-In . SVG Version: 6.00 Build 0)  -->
<!DOCTYPE svg PUBLIC "-//W3C//DTD SVG 1.1//EN" "http://www.w3.org/Graphics/SVG/1.1/DTD/svg11.dtd">
<svg version="1.1" id="Layer_1" xmlns="http://www.w3.org/2000/svg" xmlns:xlink="http://www.w3.org/1999/xlink" x="0px" y="0px"
	 width="100px" height="100px" viewBox="0 0 100 100" enable-background="new 0 0 100 100" xml:space="preserve">
<path fill="#3C89B7" d="M85.346,14.66c-4.479-4.486-9.788-8.077-15.774-10.692c-12.127-5.29-27.005-5.29-39.115-0.002
	c-5.987,2.603-11.29,6.203-15.794,10.691c-4.482,4.491-8.074,9.802-10.684,15.782C1.338,36.488,0,43.075,0,49.994
	c0,6.933,1.338,13.52,3.978,19.566c2.614,5.986,6.209,11.299,10.694,15.777c4.475,4.48,9.791,8.079,15.784,10.687
	c6.078,2.646,12.653,3.984,19.553,3.984c6.902,0,13.48-1.338,19.562-3.984c5.999-2.62,11.309-6.212,15.774-10.682
	c4.475-4.469,8.07-9.781,10.69-15.782c2.646-6.059,3.984-12.638,3.984-19.566c0-6.914-1.338-13.49-3.984-19.562
	C93.416,24.445,89.824,19.132,85.346,14.66z M67.664,31.831c2.208,2.254,3.994,4.995,5.312,8.126
	c1.292,3.111,1.956,6.487,1.956,10.037c0,3.547-0.664,6.933-1.956,10.032c-1.321,3.156-3.121,5.936-5.358,8.263
	c-2.191,2.288-4.822,4.101-7.802,5.387c-5.964,2.555-13.688,2.555-19.615,0c-2.98-1.286-5.601-3.099-7.805-5.395
	c-2.241-2.319-4.034-5.099-5.349-8.255c-1.299-3.089-1.957-6.465-1.957-10.032c0-3.566,0.658-6.934,1.957-10.03
	c1.305-3.137,3.095-5.878,5.306-8.132c1.115-1.13,17.655-19.222,17.655-19.222S66.552,30.698,67.664,31.831z"/>
</svg>
