<?xml version="1.0" encoding="utf-8"?>
<!-- Generator: Adobe Illustrator 16.0.0, SVG Export Plug-In . SVG Version: 6.00 Build 0)  -->
<!DOCTYPE svg PUBLIC "-//W3C//DTD SVG 1.1//EN" "http://www.w3.org/Graphics/SVG/1.1/DTD/svg11.dtd">
<svg version="1.1" id="Layer_1" xmlns="http://www.w3.org/2000/svg" xmlns:xlink="http://www.w3.org/1999/xlink" x="0px" y="0px"
	 width="100px" height="15.869px" viewBox="0 0 100 15.869" enable-background="new 0 0 100 15.869" xml:space="preserve">
<path fill="#FFFFFF" d="M50.835,12.59V6.426l-2.401,4.59h-0.982l-2.399-4.59v6.164h-1.811V3.279h1.94l2.754,5.298l2.779-5.298h1.93
	v9.311H50.835z"/>
<path fill="#FFFFFF" d="M57.235,3.279h1.601l3.539,9.311h-1.861l-0.866-2.321h-3.251l-0.854,2.321h-1.861L57.235,3.279z
	 M59.321,8.997l-1.285-3.659l-1.339,3.659H59.321z"/>
<path fill="#FFFFFF" d="M69.445,4.866h-2.979v7.724H64.67V4.866h-2.976V3.279h7.751V4.866z"/>
<path fill="#FFFFFF" d="M77.562,4.866h-2.976v7.724H72.79V4.866h-2.978V3.279h7.75V4.866z"/>
<path fill="#FFFFFF" d="M82.259,12.656c-0.684,0-1.303-0.133-1.857-0.4c-0.555-0.266-1.031-0.621-1.43-1.062
	c-0.397-0.441-0.705-0.947-0.925-1.515c-0.218-0.568-0.326-1.149-0.326-1.744c0-0.621,0.115-1.216,0.348-1.784
	c0.23-0.568,0.551-1.071,0.956-1.508c0.408-0.437,0.891-0.784,1.449-1.042c0.56-0.258,1.168-0.387,1.823-0.387
	c0.673,0,1.287,0.138,1.842,0.413c0.556,0.275,1.031,0.636,1.424,1.082s0.698,0.953,0.918,1.521
	c0.218,0.568,0.329,1.146,0.329,1.731c0,0.621-0.115,1.213-0.342,1.777c-0.229,0.563-0.542,1.062-0.945,1.495
	c-0.401,0.433-0.882,0.779-1.441,1.036C83.52,12.526,82.914,12.656,82.259,12.656z M79.557,7.935c0,0.402,0.06,0.792,0.184,1.167
	c0.121,0.376,0.299,0.708,0.531,0.997c0.23,0.288,0.515,0.52,0.852,0.695s0.719,0.262,1.148,0.262c0.436,0,0.824-0.089,1.159-0.269
	c0.337-0.179,0.621-0.417,0.854-0.715c0.23-0.297,0.405-0.631,0.525-1.003c0.117-0.371,0.175-0.749,0.175-1.134
	c0-0.402-0.062-0.792-0.19-1.167c-0.126-0.376-0.305-0.708-0.537-0.997c-0.23-0.288-0.515-0.518-0.853-0.688
	c-0.337-0.17-0.715-0.256-1.133-0.256c-0.438,0-0.826,0.09-1.168,0.269s-0.625,0.415-0.852,0.708
	c-0.229,0.293-0.401,0.625-0.519,0.997C79.616,7.171,79.557,7.55,79.557,7.935z"/>
<path fill="#FFFFFF" d="M90.009,6.623v5.967h-1.81V3.279h1.402l4.854,6.111V3.292h1.808v9.298h-1.468L90.009,6.623z"/>
<path fill="#FFFFFF" d="M98.206,12.59V3.279h1.81v9.311H98.206z"/>
<path fill="#FFFFFF" d="M40.523,15.869H0V0h40.523V15.869z M1.366,14.503h37.791V1.366H1.366V14.503z"/>
<path fill="#FFFFFF" d="M7.875,3.279h0.773l3.869,9.312h-0.971l-1.207-2.911H6.158L4.964,12.59H3.98L7.875,3.279z M10.131,8.958
	L8.256,4.354L6.354,8.958H10.131z"/>
<path fill="#FFFFFF" d="M13.855,12.59V3.279h0.917v8.499h5.377v0.813H13.855z"/>
<path fill="#FFFFFF" d="M27.757,11.777v0.813h-6.256V3.279h6.138v0.813h-5.22v3.357h4.551v0.773h-4.551v3.555H27.757z"/>
<path fill="#FFFFFF" d="M29.422,3.279l3.056,4.065l3.056-4.065h1.009L32.963,8l3.475,4.591h-1.009l-2.951-3.935l-2.951,3.935h-1.036
	L31.967,8l-3.581-4.721H29.422z"/>
</svg>
